<?xml version="1.0" encoding="UTF-8" standalone="no"?>
<svg
   xmlns:dc="http://purl.org/dc/elements/1.1/"
   xmlns:cc="http://creativecommons.org/ns#"
   xmlns:rdf="http://www.w3.org/1999/02/22-rdf-syntax-ns#"
   xmlns:svg="http://www.w3.org/2000/svg"
   xmlns="http://www.w3.org/2000/svg"
   xmlns:sodipodi="http://sodipodi.sourceforge.net/DTD/sodipodi-0.dtd"
   xmlns:inkscape="http://www.inkscape.org/namespaces/inkscape"
   version="1.1"
   id="svg2"
   xml:space="preserve"
   width="499.05334"
   height="310.72"
   viewBox="0 0 499.05334 310.72"
   sodipodi:docname="232.eps"><metadata
     id="metadata8"><rdf:RDF><cc:Work
         rdf:about=""><dc:format>image/svg+xml</dc:format><dc:type
           rdf:resource="http://purl.org/dc/dcmitype/StillImage" /></cc:Work></rdf:RDF></metadata><defs
     id="defs6" /><sodipodi:namedview
     pagecolor="#ffffff"
     bordercolor="#666666"
     borderopacity="1"
     objecttolerance="10"
     gridtolerance="10"
     guidetolerance="10"
     inkscape:pageopacity="0"
     inkscape:pageshadow="2"
     inkscape:window-width="640"
     inkscape:window-height="480"
     id="namedview4" /><g
     id="g10"
     inkscape:groupmode="layer"
     inkscape:label="ink_ext_XXXXXX"
     transform="matrix(1.3333333,0,0,-1.3333333,0,310.72)"><g
       id="g12"
       transform="scale(0.1)"><path
         d="m 795.613,235.211 c 0,0 362.717,864.999 492.717,784.999 130,-79.999 437.09,-784.999 437.09,-784.999 H 795.613"
         style="fill:#ccf96a;fill-opacity:1;fill-rule:nonzero;stroke:none"
         id="path14" /><path
         d="m 1345.61,245.211 c 0,0 482.84,974.209 655.9,884.119 173.04,-90.1 581.82,-884.119 581.82,-884.119 H 1345.61"
         style="fill:#ccf96a;fill-opacity:1;fill-rule:nonzero;stroke:none"
         id="path16" /><path
         d="m 3033.33,235.211 c 0,0 -331.59,828.079 -450.43,751.5 -118.83,-76.59 -399.57,-751.5 -399.57,-751.5 h 850"
         style="fill:#ccf96a;fill-opacity:1;fill-rule:nonzero;stroke:none"
         id="path18" /><path
         d="m 1813.33,245.211 h 60 V 1255.21 h -60 V 245.211"
         style="fill:#d0f4f2;fill-opacity:1;fill-rule:nonzero;stroke:none"
         id="path20" /><path
         d="m 1783.33,245.211 h 50 V 1255.21 h -50 V 245.211"
         style="fill:#ffffff;fill-opacity:1;fill-rule:nonzero;stroke:none"
         id="path22" /><path
         d="m 1954.62,2115.21 h -242.58 c -39.03,0 -76.47,-15.51 -104.07,-43.1 l -171.53,-171.54 c -27.6,-27.6 -43.11,-65.03 -43.11,-104.07 v -242.59 c 0,-39.03 15.51,-76.46 43.11,-104.06 l 171.53,-171.53 c 27.6,-27.6 65.04,-43.11 104.07,-43.11 h 242.58 c 39.03,0 76.48,15.51 104.07,43.11 l 171.54,171.53 c 27.59,27.6 43.1,65.03 43.1,104.06 v 242.59 c 0,39.04 -15.51,76.47 -43.1,104.07 l -171.54,171.54 c -27.59,27.59 -65.04,43.1 -104.07,43.1"
         style="fill:#f5446f;fill-opacity:1;fill-rule:nonzero;stroke:none"
         id="path24" /><path
         d="m 1662.89,1650.11 v 54.74 l -30.64,-54.74 z m 63.12,0.27 c 1.74,0 2.62,-6.59 2.62,-19.78 0,-13.18 -0.88,-19.78 -2.62,-19.78 l -17.29,-0.25 v -33.01 c 0,-1.92 -3.58,-3.31 -10.74,-4.18 -7.16,-0.88 -13.35,-1.31 -18.59,-1.31 l -10.74,0.52 c -8.9,0.7 -13.35,2.27 -13.35,4.71 v 32.48 h -52.12 c -4.54,4.54 -8.65,10.43 -12.32,17.68 -3.66,7.24 -5.5,12.48 -5.5,15.71 0,3.23 0.53,5.8 1.58,7.73 l 57.35,101.62 c 0.7,1.39 6.06,2.44 16.11,3.14 10.04,0.7 20.56,1.05 31.56,1.05 11,0 16.5,-0.44 16.5,-1.32 l 0.26,-105.01 h 17.29"
         style="fill:#f8f5fc;fill-opacity:1;fill-rule:nonzero;stroke:none"
         id="path26" /><path
         d="m 1823.04,1707.47 c -6.73,0 -12.4,-3.8 -17.03,-11.39 -4.63,-7.6 -6.94,-18.38 -6.94,-32.35 0,-13.97 2.23,-24.66 6.68,-32.08 4.46,-7.43 10.22,-11.13 17.29,-11.13 7.07,0 12.83,3.75 17.28,11.26 4.46,7.5 6.68,18.24 6.68,32.21 0,13.97 -2.32,24.71 -6.94,32.22 -4.63,7.5 -10.3,11.26 -17.02,11.26 z m 0,-138.02 c -21.91,0 -39.81,8.03 -53.69,24.09 -13.89,16.07 -20.82,39.55 -20.82,70.45 0,30.91 6.98,54.26 20.95,70.06 13.96,15.8 31.99,23.7 54.08,23.7 22.09,0 39.94,-7.85 53.56,-23.57 13.62,-15.71 20.43,-39.37 20.43,-70.97 0,-31.61 -6.94,-55.14 -20.82,-70.58 -13.89,-15.46 -31.79,-23.18 -53.69,-23.18"
         style="fill:#f8f5fc;fill-opacity:1;fill-rule:nonzero;stroke:none"
         id="path28" /><path
         d="m 1986.87,1650.11 v 54.74 l -30.65,-54.74 z m 63.11,0.27 c 1.74,0 2.62,-6.59 2.62,-19.78 0,-13.18 -0.88,-19.78 -2.62,-19.78 l -17.28,-0.25 v -33.01 c 0,-1.92 -3.59,-3.31 -10.74,-4.18 -7.16,-0.88 -13.35,-1.31 -18.6,-1.31 l -10.73,0.52 c -8.91,0.7 -13.36,2.27 -13.36,4.71 v 32.48 h -52.12 c -4.54,4.54 -8.64,10.43 -12.31,17.68 -3.67,7.24 -5.5,12.48 -5.5,15.71 0,3.23 0.53,5.8 1.57,7.73 l 57.35,101.62 c 0.71,1.39 6.07,2.44 16.12,3.14 10.04,0.7 20.55,1.05 31.55,1.05 11.01,0 16.5,-0.44 16.5,-1.32 l 0.27,-105.01 h 17.28"
         style="fill:#f8f5fc;fill-opacity:1;fill-rule:nonzero;stroke:none"
         id="path30" /><path
         d="m 1933.33,220.211 h -230 c -8.28,0 -15,6.719 -15,15 0,8.289 6.72,15 15,15 h 230 c 8.28,0 15,-6.711 15,-15 0,-8.281 -6.72,-15 -15,-15"
         style="fill:#5e349d;fill-opacity:1;fill-rule:nonzero;stroke:none"
         id="path32" /><path
         d="m 1583.33,220.211 h -350 c -8.28,0 -15,6.719 -15,15 0,8.289 6.72,15 15,15 h 350 c 8.29,0 15,-6.711 15,-15 0,-8.281 -6.71,-15 -15,-15"
         style="fill:#5e349d;fill-opacity:1;fill-rule:nonzero;stroke:none"
         id="path34" /><path
         d="M 1103.33,220.211 H 733.332 c -8.285,0 -15,6.719 -15,15 0,8.289 6.715,15 15,15 h 369.998 c 8.29,0 15,-6.711 15,-15 0,-8.281 -6.71,-15 -15,-15"
         style="fill:#5e349d;fill-opacity:1;fill-rule:nonzero;stroke:none"
         id="path36" /><path
         d="m 3033.33,220.211 h -990 c -8.28,0 -15,6.719 -15,15 0,8.289 6.72,15 15,15 h 990 c 8.28,0 15,-6.711 15,-15 0,-8.281 -6.72,-15 -15,-15"
         style="fill:#5e349d;fill-opacity:1;fill-rule:nonzero;stroke:none"
         id="path38" /><path
         d="m 1878.33,230.211 c -8.28,0 -15,6.719 -15,15 V 1250.21 c 0,8.29 6.72,15 15,15 8.28,0 15,-6.71 15,-15 V 245.211 c 0,-8.281 -6.72,-15 -15,-15"
         style="fill:#5e349d;fill-opacity:1;fill-rule:nonzero;stroke:none"
         id="path40" /><path
         d="m 1768.33,230.211 c -8.28,0 -15,6.719 -15,15 V 1250.21 c 0,8.29 6.72,15 15,15 8.29,0 15,-6.71 15,-15 V 245.211 c 0,-8.281 -6.71,-15 -15,-15"
         style="fill:#5e349d;fill-opacity:1;fill-rule:nonzero;stroke:none"
         id="path42" /><path
         d="m 1661.72,2080.21 c -10.41,0 -20.2,-4.05 -27.56,-11.41 l -214.42,-214.42 c -7.35,-7.36 -11.41,-17.15 -11.41,-27.56 v -303.23 c 0,-10.4 4.06,-20.19 11.42,-27.55 l 214.41,-214.42 c 7.36,-7.36 17.15,-11.41 27.56,-11.41 h 303.23 c 10.26,0 20.3,4.16 27.55,11.41 l 214.43,214.42 c 7.35,7.36 11.4,17.14 11.4,27.55 v 303.23 c 0,10.41 -4.05,20.2 -11.4,27.56 L 1992.5,2068.8 c -7.25,7.25 -17.29,11.41 -27.55,11.41 z m 303.23,-840 h -303.23 c -18.43,0 -35.75,7.17 -48.77,20.2 l -214.42,214.42 c -13.02,13.03 -20.2,30.35 -20.2,48.76 v 303.23 c 0,18.42 7.18,35.74 20.2,48.77 l 214.42,214.42 c 13.02,13.03 30.34,20.2 48.77,20.2 h 303.23 c 18.43,0 35.75,-7.17 48.76,-20.2 l 214.43,-214.42 c 13.02,-13.03 20.19,-30.35 20.19,-48.77 v -303.23 c 0,-18.41 -7.17,-35.73 -20.19,-48.76 l -214.43,-214.42 c -13.01,-13.03 -30.33,-20.2 -48.76,-20.2"
         style="fill:#5e349d;fill-opacity:1;fill-rule:nonzero;stroke:none"
         id="path44" /><path
         d="m 1727.88,1970.21 c -23.69,0 -45.97,-9.23 -62.71,-25.98 l -120.86,-120.85 c -16.75,-16.75 -25.98,-39.02 -25.98,-62.72 v -170.91 c 0,-23.69 9.23,-45.96 25.98,-62.71 l 120.85,-120.85 c 16.75,-16.76 39.03,-25.98 62.72,-25.98 h 170.91 c 23.69,0 45.97,9.22 62.72,25.98 l 120.85,120.85 c 16.74,16.75 25.97,39.02 25.97,62.71 v 170.91 c 0,23.7 -9.23,45.97 -25.97,62.72 l -120.85,120.85 c -16.75,16.75 -39.03,25.98 -62.72,25.98 z m 170.91,-620 h -170.91 c -31.71,0 -61.52,12.35 -83.93,34.77 l -120.85,120.85 c -22.42,22.42 -34.77,52.22 -34.77,83.92 v 170.91 c 0,31.71 12.35,61.51 34.77,83.93 l 120.85,120.86 c 22.41,22.41 52.22,34.76 83.93,34.76 h 170.91 c 31.71,0 61.52,-12.35 83.93,-34.76 l 120.85,-120.86 c 22.42,-22.42 34.76,-52.22 34.76,-83.93 v -170.91 c 0,-31.7 -12.34,-61.5 -34.76,-83.92 l -120.85,-120.85 c -22.41,-22.42 -52.22,-34.77 -83.93,-34.77"
         style="fill:#5e349d;fill-opacity:1;fill-rule:nonzero;stroke:none"
         id="path46" /><path
         d="m 1473.94,1834.61 c 30.15,30.14 60.3,60.3 90.45,90.45 28.94,28.93 57.32,66.27 90.46,90.45 38.58,28.14 108.19,14.7 152.01,14.7 45.49,0 90.98,0 136.47,0 19.31,0 19.34,30 0,30 -48.8,0 -97.59,0 -146.39,0 -40.93,0 -100.12,10.43 -139.12,-7.01 -38.83,-17.36 -71.69,-63.98 -100.78,-93.07 -34.77,-34.77 -69.54,-69.54 -104.31,-104.31 -13.67,-13.67 7.54,-34.89 21.21,-21.21 v 0"
         style="fill:#ffffff;fill-opacity:1;fill-rule:nonzero;stroke:none"
         id="path48" /><path
         d="m 1778.32,1295.21 c -7.92,0 -14.55,6.21 -14.97,14.21 -0.43,8.27 5.92,15.34 14.2,15.77 l 143.26,7.54 c 26.72,1.41 52.39,12.04 72.28,29.93 l 65.2,58.7 c 6.17,5.53 15.64,5.04 21.2,-1.12 5.53,-6.15 5.03,-15.63 -1.12,-21.18 l -65.21,-58.69 c -24.99,-22.48 -57.22,-35.83 -90.76,-37.6 l -143.28,-7.54 c -0.26,-0.02 -0.53,-0.02 -0.8,-0.02"
         style="fill:#ffffff;fill-opacity:1;fill-rule:nonzero;stroke:none"
         id="path50" /><path
         d="m 1826.56,1395.8 c -5.26,0 -9.67,4.1 -9.98,9.41 -0.32,5.52 3.89,10.25 9.4,10.57 l 87.56,5.08 c 1.91,0.11 3.74,0.77 5.27,1.92 l 61.78,46.03 c 4.43,3.32 10.69,2.39 13.99,-2.04 3.3,-4.43 2.39,-10.69 -2.04,-13.99 l -61.78,-46.04 c -4.67,-3.49 -10.24,-5.51 -16.08,-5.85 l -87.53,-5.08 c -0.2,-0.01 -0.4,-0.01 -0.59,-0.01"
         style="fill:#ffffff;fill-opacity:1;fill-rule:nonzero;stroke:none"
         id="path52" /><path
         d="m 1803.96,1406.15 c 0,-5.61 -4.55,-10.16 -10.16,-10.16 -5.61,0 -10.15,4.55 -10.15,10.16 0,5.61 4.54,10.15 10.15,10.15 5.61,0 10.16,-4.54 10.16,-10.15"
         style="fill:#ffffff;fill-opacity:1;fill-rule:nonzero;stroke:none"
         id="path54" /><path
         d="M 1103.09,1985.21 H 64.9961 c -35.7461,0 -65.00000625,29.25 -65.00000625,65 v 0 c 0,35.75 29.25390625,65 65.00000625,65 H 1103.09 c 35.75,0 65,-29.25 65,-65 v 0 c 0,-35.75 -29.25,-65 -65,-65"
         style="fill:#d0f4f2;fill-opacity:1;fill-rule:nonzero;stroke:none"
         id="path56" /><path
         d="M 1354.16,2070.4 H 316.078 c -35.754,0 -65,29.25 -65,65 v 0 c 0,35.75 29.246,65 65,65 H 1354.16 c 35.75,0 65,-29.25 65,-65 v 0 c 0,-35.75 -29.25,-65 -65,-65"
         style="fill:#d0f4f2;fill-opacity:1;fill-rule:nonzero;stroke:none"
         id="path58" /><path
         d="M 1065.03,2200.4 H 436.906 c -35.746,0 -65,29.25 -65,65 v 0 c 0,35.75 29.254,65 65,65 h 628.124 c 35.75,0 65,-29.25 65,-65 v 0 c 0,-35.75 -29.25,-65 -65,-65"
         style="fill:#d0f4f2;fill-opacity:1;fill-rule:nonzero;stroke:none"
         id="path60" /><path
         d="M 1004.89,1891.68 H 205.637 c -31.625,0 -57.504,25.88 -57.504,57.52 v 14.98 c 0,31.63 25.879,57.5 57.504,57.5 h 799.253 c 31.63,0 57.51,-25.87 57.51,-57.5 v -14.98 c 0,-31.64 -25.88,-57.52 -57.51,-57.52"
         style="fill:#d0f4f2;fill-opacity:1;fill-rule:nonzero;stroke:none"
         id="path62" /><path
         d="M 3426.84,1371.88 H 2388.75 c -35.75,0 -65,29.25 -65,65 v 0 c 0,35.75 29.25,65 65,65 h 1038.09 c 35.75,0 65,-29.25 65,-65 v 0 c 0,-35.75 -29.25,-65 -65,-65"
         style="fill:#d0f4f2;fill-opacity:1;fill-rule:nonzero;stroke:none"
         id="path64" /><path
         d="M 3677.91,1457.07 H 2639.83 c -35.76,0 -65,29.25 -65,65 v 0 c 0,35.75 29.24,65 65,65 h 1038.08 c 35.75,0 65,-29.25 65,-65 v 0 c 0,-35.75 -29.25,-65 -65,-65"
         style="fill:#d0f4f2;fill-opacity:1;fill-rule:nonzero;stroke:none"
         id="path66" /><path
         d="M 958.715,998.449 H 356.871 c -35.75,0 -65,29.241 -65,65.001 v 0 c 0,35.75 29.25,65 65,65 h 601.844 c 35.746,0 64.995,-29.25 64.995,-65 v 0 c 0,-35.76 -29.249,-65.001 -64.995,-65.001"
         style="fill:#d0f4f2;fill-opacity:1;fill-rule:nonzero;stroke:none"
         id="path68" /><path
         d="m 782.848,877.73 h -601.84 c -35.746,0 -65,29.258 -65,65 v 0 c 0,35.758 29.254,65 65,65 h 601.84 c 35.754,0 65,-29.242 65,-65 v 0 c 0,-35.742 -29.246,-65 -65,-65"
         style="fill:#d0f4f2;fill-opacity:1;fill-rule:nonzero;stroke:none"
         id="path70" /><path
         d="M 3062.12,1551.49 H 2434 c -35.76,0 -65,29.26 -65,65 v 0 c 0,35.76 29.24,65 65,65 h 628.12 c 35.74,0 65,-29.24 65,-65 v 0 c 0,-35.74 -29.26,-65 -65,-65"
         style="fill:#d0f4f2;fill-opacity:1;fill-rule:nonzero;stroke:none"
         id="path72" /><path
         d="m 3558.5,1278.35 h -799.25 c -31.63,0 -57.51,25.88 -57.51,57.51 v 14.99 c 0,31.63 25.88,57.51 57.51,57.51 h 799.25 c 31.62,0 57.5,-25.88 57.5,-57.51 v -14.99 c 0,-31.63 -25.88,-57.51 -57.5,-57.51"
         style="fill:#d0f4f2;fill-opacity:1;fill-rule:nonzero;stroke:none"
         id="path74" /><path
         d="m 847.141,128.711 h 10.246 l 20.39,-71.9102 28.614,71.9102 h 2.07 l 28.273,-71.9102 20.739,71.9102 h 10.172 L 938.961,28.9102 h -1.848 L 907.492,104.422 877.301,28.9102 h -1.863 l -28.297,99.8008"
         style="fill:#5e349d;fill-opacity:1;fill-rule:nonzero;stroke:none"
         id="path76" /><path
         d="m 988.078,131.219 h 9.496 V 89.4883 c 3.846,5.0703 8.076,8.8633 12.696,11.3707 4.61,2.512 9.61,3.77 14.99,3.77 5.52,0 10.42,-1.41 14.69,-4.207 4.27,-2.8009 7.43,-6.5704 9.46,-11.3009 2.04,-4.7305 3.06,-12.1328 3.06,-22.2227 V 28.9102 h -9.5 v 35.2109 c 0,8.5078 -0.34,14.1797 -1.02,17.0273 -1.18,4.8829 -3.31,8.5625 -6.41,11.0313 -3.1,2.4609 -7.16,3.6992 -12.18,3.6992 -5.75,0 -10.89,-1.9101 -15.44,-5.6992 -4.54,-3.8008 -7.54,-8.5078 -8.986,-14.1211 -0.903,-3.6172 -1.36,-10.3086 -1.36,-20.0781 V 28.9102 h -9.496 V 131.219"
         style="fill:#5e349d;fill-opacity:1;fill-rule:nonzero;stroke:none"
         id="path78" /><path
         d="m 1111.21,95.3281 c -7.9,0 -14.68,-2.9179 -20.36,-8.75 -5.68,-5.8398 -8.51,-12.8867 -8.51,-21.1679 0,-5.3399 1.29,-10.3086 3.88,-14.9297 2.59,-4.6094 6.08,-8.1797 10.49,-10.6914 4.4,-2.5078 9.23,-3.7578 14.5,-3.7578 5.26,0 10.1,1.25 14.5,3.7578 4.4,2.5117 7.9,6.082 10.49,10.6914 2.59,4.6211 3.88,9.5898 3.88,14.9297 0,8.2812 -2.85,15.3281 -8.55,21.1679 -5.69,5.8321 -12.47,8.75 -20.32,8.75 z m 0.03,9.3009 c 11.37,0 20.8,-4.117 28.28,-12.3595 6.8,-7.5 10.19,-16.3906 10.19,-26.6601 0,-10.3086 -3.59,-19.3203 -10.77,-27.0391 C 1131.76,30.8594 1122.53,27 1111.24,27 c -11.33,0 -20.58,3.8594 -27.76,11.5703 -7.18,7.7188 -10.78,16.7305 -10.78,27.0391 0,10.2304 3.4,19.0898 10.2,26.6015 7.47,8.2771 16.92,12.4181 28.34,12.4181"
         style="fill:#5e349d;fill-opacity:1;fill-rule:nonzero;stroke:none"
         id="path80" /><path
         d="m 1205.67,95.3281 c -7.9,0 -14.69,-2.9179 -20.36,-8.75 -5.68,-5.8398 -8.52,-12.8867 -8.52,-21.1679 0,-5.3399 1.3,-10.3086 3.89,-14.9297 2.58,-4.6094 6.08,-8.1797 10.48,-10.6914 4.41,-2.5078 9.24,-3.7578 14.51,-3.7578 5.26,0 10.09,1.25 14.5,3.7578 4.4,2.5117 7.9,6.082 10.49,10.6914 2.58,4.6211 3.88,9.5898 3.88,14.9297 0,8.2812 -2.85,15.3281 -8.55,21.1679 -5.69,5.8321 -12.47,8.75 -20.32,8.75 z m 0.03,9.3009 c 11.37,0 20.8,-4.117 28.28,-12.3595 6.79,-7.5 10.19,-16.3906 10.19,-26.6601 0,-10.3086 -3.59,-19.3203 -10.77,-27.0391 C 1226.22,30.8594 1216.98,27 1205.7,27 c -11.33,0 -20.59,3.8594 -27.76,11.5703 -7.19,7.7188 -10.78,16.7305 -10.78,27.0391 0,10.2304 3.4,19.0898 10.2,26.6015 7.47,8.2771 16.92,12.4181 28.34,12.4181"
         style="fill:#5e349d;fill-opacity:1;fill-rule:nonzero;stroke:none"
         id="path82" /><path
         d="m 1303.35,95.4688 c -8.21,0 -15.12,-2.8672 -20.74,-8.6094 -5.63,-5.7383 -8.43,-12.8789 -8.43,-21.418 0,-5.6016 1.25,-10.6406 3.75,-15.1133 2.51,-4.4687 6.1,-8.0195 10.77,-10.6367 4.67,-2.6211 9.6,-3.9297 14.79,-3.9297 5.1,0 9.89,1.3164 14.38,3.9688 4.5,2.6289 8.07,6.3281 10.73,11.0703 2.66,4.75 4,9.7187 4,14.9101 0,5.25 -1.32,10.2188 -3.96,14.9102 -2.65,4.6992 -6.2,8.3477 -10.66,10.9492 -4.47,2.6016 -9.35,3.8985 -14.63,3.8985 z m -37.99,7.2502 h 9.5 V 89.1602 c 3.75,5.1601 8.06,9.0195 12.94,11.6018 4.88,2.578 10.33,3.867 16.34,3.867 10.48,0 19.45,-3.777 26.91,-11.3282 7.45,-7.5625 11.18,-16.6524 11.18,-27.2813 0,-10.8476 -3.69,-20.0703 -11.08,-27.6484 C 1323.76,30.7891 1314.85,27 1304.41,27 c -5.88,0 -11.28,1.2305 -16.2,3.6719 -4.93,2.4375 -9.38,6.0898 -13.35,10.9179 V 1.89844 h -9.5 V 102.719"
         style="fill:#5e349d;fill-opacity:1;fill-rule:nonzero;stroke:none"
         id="path84" /><path
         d="m 1400.59,94.6484 -6.1,-6.3086 c -5.08,4.9297 -10.05,7.3985 -14.9,7.3985 -3.09,0 -5.73,-1.0195 -7.93,-3.0469 -2.2,-2.043 -3.3,-4.4219 -3.3,-7.1328 0,-2.3984 0.91,-4.6797 2.72,-6.8477 1.81,-2.2226 5.62,-4.8203 11.43,-7.8007 7.07,-3.6602 11.87,-7.1993 14.41,-10.5899 2.49,-3.4414 3.74,-7.3008 3.74,-11.6015 0,-6.0586 -2.13,-11.1993 -6.39,-15.3985 C 1390.01,29.1094 1384.69,27 1378.3,27 c -4.25,0 -8.32,0.9297 -12.19,2.7813 -3.88,1.8593 -7.08,4.4179 -9.62,7.6679 l 5.97,6.7891 c 4.85,-5.4688 10,-8.207 15.44,-8.207 3.81,0 7.05,1.2304 9.72,3.6679 2.68,2.4414 4.01,5.3125 4.01,8.6094 0,2.7109 -0.88,5.1406 -2.65,7.2734 -1.77,2.0782 -5.75,4.6875 -11.96,7.8594 -6.67,3.4297 -11.2,6.8281 -13.6,10.1797 -2.41,3.3398 -3.61,7.168 -3.61,11.4687 0,5.6016 1.92,10.2618 5.75,13.9688 3.83,3.7114 8.66,5.5704 14.51,5.5704 6.79,0 13.63,-3.328 20.52,-9.9806"
         style="fill:#5e349d;fill-opacity:1;fill-rule:nonzero;stroke:none"
         id="path86" /><path
         d="m 1431.35,43.8398 c 2.3,0 4.27,-0.8203 5.9,-2.4492 1.62,-1.6211 2.44,-3.6211 2.44,-5.9687 0,-2.3125 -0.82,-4.293 -2.44,-5.9414 -1.63,-1.6524 -3.6,-2.4805 -5.9,-2.4805 -2.31,0 -4.28,0.8281 -5.91,2.4805 -1.63,1.6484 -2.44,3.6289 -2.44,5.9414 0,2.3476 0.81,4.3476 2.44,5.9687 1.63,1.6289 3.6,2.4492 5.91,2.4492"
         style="fill:#5e349d;fill-opacity:1;fill-rule:nonzero;stroke:none"
         id="path88" /><path
         d="m 1473.29,43.8398 c 2.3,0 4.27,-0.8203 5.9,-2.4492 1.63,-1.6211 2.44,-3.6211 2.44,-5.9687 0,-2.3125 -0.81,-4.293 -2.44,-5.9414 -1.63,-1.6524 -3.6,-2.4805 -5.9,-2.4805 -2.31,0 -4.28,0.8281 -5.9,2.4805 -1.64,1.6484 -2.45,3.6289 -2.45,5.9414 0,2.3476 0.81,4.3476 2.45,5.9687 1.62,1.6289 3.59,2.4492 5.9,2.4492"
         style="fill:#5e349d;fill-opacity:1;fill-rule:nonzero;stroke:none"
         id="path90" /><path
         d="m 1515.24,43.8398 c 2.3,0 4.27,-0.8203 5.9,-2.4492 1.63,-1.6211 2.44,-3.6211 2.44,-5.9687 0,-2.3125 -0.81,-4.293 -2.44,-5.9414 -1.63,-1.6524 -3.6,-2.4805 -5.9,-2.4805 -2.31,0 -4.28,0.8281 -5.91,2.4805 -1.63,1.6484 -2.44,3.6289 -2.44,5.9414 0,2.3476 0.81,4.3476 2.44,5.9687 1.63,1.6289 3.6,2.4492 5.91,2.4492"
         style="fill:#5e349d;fill-opacity:1;fill-rule:nonzero;stroke:none"
         id="path92" /><path
         d="M 1600.14,118.941 V 85.0898 l 16.89,-0.2109 c 6.83,0 11.83,0.6211 15,1.8711 3.16,1.2383 5.65,3.2383 7.46,6.0195 1.81,2.7813 2.71,5.8789 2.71,9.3085 0,3.344 -0.9,6.402 -2.71,9.184 -1.81,2.769 -4.19,4.75 -7.15,5.918 -2.97,1.179 -7.82,1.761 -14.56,1.761 z m -9.98,9.77 h 19.89 c 11.39,0 19.08,-0.5 23.06,-1.492 5.71,-1.399 10.36,-4.278 13.98,-8.649 3.62,-4.359 5.43,-9.851 5.43,-16.449 0,-6.6522 -1.77,-12.1405 -5.29,-16.4608 -3.53,-4.3204 -8.39,-7.2188 -14.59,-8.7188 -4.52,-1.082 -12.98,-1.6328 -25.38,-1.6328 h -7.12 V 28.9102 h -9.98 v 99.8008"
         style="fill:#5e349d;fill-opacity:1;fill-rule:nonzero;stroke:none"
         id="path94" /><path
         d="m 1709.97,95.4688 c -5.29,0 -10.17,-1.2969 -14.64,-3.8985 -4.47,-2.6015 -8.03,-6.25 -10.67,-10.9492 -2.65,-4.6914 -3.97,-9.6602 -3.97,-14.9102 0,-5.1914 1.33,-10.1601 4,-14.9101 2.67,-4.7422 6.25,-8.4414 10.74,-11.0703 4.49,-2.6524 9.33,-3.9688 14.47,-3.9688 5.19,0 10.11,1.3086 14.78,3.9297 4.65,2.6172 8.22,6.168 10.74,10.6367 2.5,4.4727 3.75,9.5117 3.75,15.1133 0,8.5391 -2.81,15.6797 -8.43,21.418 -5.63,5.7422 -12.54,8.6094 -20.77,8.6094 z m 37.95,7.2502 V 28.9102 h -9.35 v 12.6796 c -3.99,-4.8281 -8.44,-8.4804 -13.4,-10.9179 C 1720.21,28.2305 1714.8,27 1708.92,27 c -10.45,0 -19.38,3.7891 -26.77,11.3711 -7.4,7.5781 -11.09,16.8008 -11.09,27.6484 0,10.6289 3.73,19.7188 11.19,27.2813 7.46,7.5512 16.44,11.3282 26.94,11.3282 6.06,0 11.55,-1.289 16.45,-3.867 4.9,-2.5823 9.22,-6.4417 12.93,-11.6018 v 13.5588 h 9.35"
         style="fill:#5e349d;fill-opacity:1;fill-rule:nonzero;stroke:none"
         id="path96" /><path
         d="m 1808.39,95.4688 c -5.38,0 -10.38,-1.2969 -14.99,-3.9102 -4.61,-2.5977 -8.23,-6.1875 -10.86,-10.7773 -2.62,-4.6016 -3.93,-9.5625 -3.93,-14.8907 0,-8.1093 2.71,-14.8008 8.14,-20.0898 5.43,-5.2891 12.46,-7.9414 21.1,-7.9414 8.73,0 15.76,2.6289 21.07,7.8711 5.31,5.25 7.98,12.1484 7.98,20.6992 0,5.5586 -1.22,10.5195 -3.67,14.8906 -2.45,4.3594 -5.9,7.8086 -10.39,10.3516 -4.47,2.5273 -9.28,3.7969 -14.45,3.7969 z m 28.03,7.2502 h 9.5 V 43.8984 c 0,-10.3593 -0.91,-17.9296 -2.71,-22.7265 C 1840.72,14.3789 1836.4,9.16016 1830.25,5.5 1824.09,1.83984 1816.69,0 1808.06,0 c -6.34,0 -12.02,0.898438 -17.07,2.69141 -5.04,1.78906 -9.15,4.1875 -12.32,7.20703 -3.16,3.02346 -6.08,7.42966 -8.75,13.23046 h 10.32 c 2.81,-4.8789 6.43,-8.4883 10.87,-10.8476 4.44,-2.35161 9.94,-3.5313 16.5,-3.5313 6.48,0 11.95,1.21094 16.41,3.6211 4.46,2.4102 7.64,5.4375 9.55,9.0898 1.9,3.6602 2.85,9.5586 2.85,17.6875 v 3.8008 c -3.58,-4.5195 -7.95,-8 -13.11,-10.4101 -5.16,-2.418 -10.64,-3.6289 -16.43,-3.6289 -6.8,0 -13.19,1.6914 -19.16,5.0507 -5.98,3.3672 -10.6,7.8985 -13.86,13.6094 -3.25,5.6914 -4.88,11.961 -4.88,18.7891 0,6.832 1.7,13.1992 5.09,19.1015 3.39,5.9102 8.09,10.5704 14.1,14.0079 5.99,3.4412 12.32,5.1602 18.97,5.1602 5.53,0 10.68,-1.141 15.46,-3.43 4.78,-2.2771 9.39,-6.0506 13.82,-11.3006 v 12.8206"
         style="fill:#5e349d;fill-opacity:1;fill-rule:nonzero;stroke:none"
         id="path98" /><path
         d="m 1931.9,73.2813 c -1.27,5.0703 -3.12,9.1093 -5.54,12.1484 -2.42,3.0312 -5.62,5.4687 -9.61,7.3203 -3.98,1.8594 -8.17,2.7891 -12.57,2.7891 -7.24,0 -13.47,-2.3399 -18.68,-7 -3.81,-3.3789 -6.68,-8.4688 -8.63,-15.2578 z m 0,-19.8829 8,-4.207 c -2.62,-5.1601 -5.66,-9.3203 -9.1,-12.4805 -3.43,-3.1718 -7.31,-5.582 -11.61,-7.2304 -4.3,-1.6524 -9.17,-2.4805 -14.6,-2.4805 -12.05,0 -21.46,3.9609 -28.25,11.8516 -6.8,7.8867 -10.19,16.8086 -10.19,26.7578 0,9.3711 2.88,17.7109 8.63,25.039 7.28,9.3204 17.04,13.9806 29.27,13.9806 12.58,0 22.63,-4.7774 30.15,-14.3204 5.34,-6.7383 8.06,-15.1484 8.15,-25.2383 h -66.43 c 0.19,-8.582 2.92,-15.6094 8.22,-21.0898 5.3,-5.4805 11.85,-8.2188 19.63,-8.2188 3.76,0 7.41,0.6602 10.98,1.9492 3.55,1.3086 6.57,3.0508 9.06,5.211 2.49,2.1679 5.19,5.6484 8.09,10.4765"
         style="fill:#5e349d;fill-opacity:1;fill-rule:nonzero;stroke:none"
         id="path100" /><path
         d="m 2007.11,28.9102 v 99.8008 h 2.17 l 66.43,-76.5001 v 76.5001 h 9.83 V 28.9102 h -2.24 L 2017.42,104.48 V 28.9102 h -10.31"
         style="fill:#5e349d;fill-opacity:1;fill-rule:nonzero;stroke:none"
         id="path102" /><path
         d="m 2146.65,95.3281 c -7.9,0 -14.68,-2.9179 -20.36,-8.75 -5.67,-5.8398 -8.51,-12.8867 -8.51,-21.1679 0,-5.3399 1.29,-10.3086 3.88,-14.9297 2.59,-4.6094 6.08,-8.1797 10.48,-10.6914 4.41,-2.5078 9.24,-3.7578 14.51,-3.7578 5.27,0 10.1,1.25 14.5,3.7578 4.4,2.5117 7.9,6.082 10.48,10.6914 2.59,4.6211 3.89,9.5898 3.89,14.9297 0,8.2812 -2.85,15.3281 -8.54,21.1679 -5.71,5.8321 -12.48,8.75 -20.33,8.75 z m 0.03,9.3009 c 11.38,0 20.8,-4.117 28.27,-12.3595 6.8,-7.5 10.2,-16.3906 10.2,-26.6601 0,-10.3086 -3.58,-19.3203 -10.77,-27.0391 C 2167.2,30.8594 2157.96,27 2146.68,27 c -11.33,0 -20.58,3.8594 -27.76,11.5703 -7.19,7.7188 -10.77,16.7305 -10.77,27.0391 0,10.2304 3.4,19.0898 10.19,26.6015 7.47,8.2771 16.93,12.4181 28.34,12.4181"
         style="fill:#5e349d;fill-opacity:1;fill-rule:nonzero;stroke:none"
         id="path104" /><path
         d="m 2214.49,130.141 h 9.49 v -27.422 h 15.07 v -8.1995 h -15.07 V 28.9102 h -9.49 v 65.6093 h -12.97 v 8.1995 h 12.97 v 27.422"
         style="fill:#5e349d;fill-opacity:1;fill-rule:nonzero;stroke:none"
         id="path106" /><path
         d="m 2300.28,128.711 h 50 v -9.77 h -40.03 V 87.6719 h 40.03 v -9.7813 h -40.03 V 28.9102 h -9.97 v 99.8008"
         style="fill:#5e349d;fill-opacity:1;fill-rule:nonzero;stroke:none"
         id="path108" /><path
         d="m 2404.48,95.3281 c -7.91,0 -14.69,-2.9179 -20.37,-8.75 -5.67,-5.8398 -8.51,-12.8867 -8.51,-21.1679 0,-5.3399 1.3,-10.3086 3.89,-14.9297 2.58,-4.6094 6.07,-8.1797 10.47,-10.6914 4.41,-2.5078 9.24,-3.7578 14.52,-3.7578 5.26,0 10.09,1.25 14.5,3.7578 4.39,2.5117 7.89,6.082 10.48,10.6914 2.58,4.6211 3.88,9.5898 3.88,14.9297 0,8.2812 -2.85,15.3281 -8.54,21.1679 -5.71,5.8321 -12.47,8.75 -20.32,8.75 z m 0.02,9.3009 c 11.38,0 20.81,-4.117 28.28,-12.3595 6.79,-7.5 10.19,-16.3906 10.19,-26.6601 0,-10.3086 -3.58,-19.3203 -10.77,-27.0391 C 2425.02,30.8594 2415.78,27 2404.5,27 c -11.32,0 -20.58,3.8594 -27.76,11.5703 -7.19,7.7188 -10.77,16.7305 -10.77,27.0391 0,10.2304 3.4,19.0898 10.19,26.6015 7.48,8.2771 16.93,12.4181 28.34,12.4181"
         style="fill:#5e349d;fill-opacity:1;fill-rule:nonzero;stroke:none"
         id="path110" /><path
         d="m 2462.81,102.719 h 9.5 V 68.2617 c 0,-8.4219 0.45,-14.2109 1.35,-17.3711 1.36,-4.5195 3.95,-8.1015 7.78,-10.7187 3.83,-2.6211 8.4,-3.9414 13.69,-3.9414 5.3,0 9.8,1.2812 13.5,3.8398 3.69,2.5586 6.24,5.9102 7.63,10.0781 0.96,2.8399 1.44,8.8829 1.44,18.1133 v 34.4573 h 9.7 V 66.4883 c 0,-10.168 -1.19,-17.8399 -3.57,-22.9883 -2.37,-5.1602 -5.95,-9.1992 -10.71,-12.1094 C 2508.34,28.4688 2502.36,27 2495.17,27 c -7.2,0 -13.19,1.4688 -18.02,4.3906 -4.81,2.9102 -8.41,6.9805 -10.78,12.1992 -2.38,5.2305 -3.56,13.0899 -3.56,23.5899 v 35.5393"
         style="fill:#5e349d;fill-opacity:1;fill-rule:nonzero;stroke:none"
         id="path112" /><path
         d="m 2551.97,102.719 h 9.5 V 89.4883 c 3.8,5.0703 8,8.8633 12.61,11.3707 4.61,2.512 9.63,3.77 15.06,3.77 5.52,0 10.42,-1.41 14.7,-4.207 4.27,-2.8009 7.42,-6.5822 9.46,-11.3322 2.03,-4.75 3.05,-12.1484 3.05,-22.1914 V 28.9102 h -9.49 v 35.2109 c 0,8.5078 -0.35,14.1797 -1.07,17.0273 -1.09,4.8829 -3.2,8.5625 -6.32,11.0313 -3.13,2.4609 -7.2,3.6992 -12.22,3.6992 -5.74,0 -10.89,-1.9101 -15.44,-5.6992 -4.54,-3.8008 -7.54,-8.5078 -8.99,-14.1211 -0.9,-3.6602 -1.35,-10.3594 -1.35,-20.0781 V 28.9102 h -9.5 v 73.8088"
         style="fill:#5e349d;fill-opacity:1;fill-rule:nonzero;stroke:none"
         id="path114" /><path
         d="m 2675.91,95.4688 c -5.28,0 -10.17,-1.2969 -14.64,-3.8985 -4.47,-2.6015 -8.04,-6.25 -10.67,-10.9492 -2.65,-4.6914 -3.97,-9.6602 -3.97,-14.9102 0,-5.1914 1.33,-10.1601 4,-14.9101 2.66,-4.7422 6.25,-8.4414 10.74,-11.0703 4.5,-2.6524 9.32,-3.9688 14.47,-3.9688 5.2,0 10.12,1.3086 14.78,3.9297 4.65,2.6172 8.23,6.168 10.74,10.6367 2.51,4.4727 3.76,9.5117 3.76,15.1133 0,8.5391 -2.81,15.6797 -8.44,21.418 -5.62,5.7422 -12.55,8.6094 -20.77,8.6094 z m 37.96,35.7502 V 28.9102 h -9.37 v 12.6796 c -3.97,-4.8281 -8.44,-8.4804 -13.39,-10.9179 C 2686.15,28.2305 2680.73,27 2674.86,27 c -10.45,0 -19.37,3.7891 -26.77,11.3711 -7.39,7.5781 -11.1,16.8008 -11.1,27.6484 0,10.6289 3.74,19.7188 11.21,27.2813 7.46,7.5512 16.43,11.3282 26.93,11.3282 6.06,0 11.54,-1.289 16.45,-3.867 4.91,-2.5823 9.22,-6.4417 12.92,-11.6018 v 42.0588 h 9.37"
         style="fill:#5e349d;fill-opacity:1;fill-rule:nonzero;stroke:none"
         id="path116" /><path
         d="m 2749.31,43.8398 c 2.3,0 4.28,-0.8203 5.9,-2.4492 1.63,-1.6211 2.44,-3.6211 2.44,-5.9687 0,-2.3125 -0.81,-4.293 -2.44,-5.9414 -1.62,-1.6524 -3.6,-2.4805 -5.9,-2.4805 -2.31,0 -4.28,0.8281 -5.91,2.4805 -1.62,1.6484 -2.44,3.6289 -2.44,5.9414 0,2.3476 0.82,4.3476 2.44,5.9687 1.63,1.6289 3.6,2.4492 5.91,2.4492 z m 0,60.7892 c 2.3,0 4.28,-0.82 5.9,-2.438 1.63,-1.632 2.44,-3.6324 2.44,-5.9801 0,-2.3515 -0.81,-4.3398 -2.44,-5.9726 -1.62,-1.6289 -3.6,-2.4375 -5.9,-2.4375 -2.31,0 -4.28,0.8086 -5.91,2.4375 -1.62,1.6328 -2.44,3.6211 -2.44,5.9726 0,2.3086 0.82,4.2891 2.44,5.9371 1.63,1.653 3.6,2.481 5.91,2.481"
         style="fill:#5e349d;fill-opacity:1;fill-rule:nonzero;stroke:none"
         id="path118" /><path
         d="m 2802.1,133.121 h 11 c -4.44,-9.09 -7.99,-19.691 -10.66,-31.82 -2.66,-12.1213 -4,-24.6291 -4,-37.5197 0,-11.9415 1.01,-23.4532 3.02,-34.5313 2.02,-11.0898 4.78,-20.82812 8.32,-29.25 h -10.45 c -3.35,8.05859 -6.02,17.5313 -8.01,28.4297 -1.99,10.9101 -2.99,22.25 -2.99,34.0586 0,12.7109 1.17,25.1015 3.53,37.1523 2.35,12.0504 5.77,23.2114 10.24,33.4804"
         style="fill:#5e349d;fill-opacity:1;fill-rule:nonzero;stroke:none"
         id="path120" /></g></g></svg>
