<svg id="Layer_1" enable-background="new 0 0 256 256" height="512" viewBox="0 0 256 256" width="512" xmlns="http://www.w3.org/2000/svg"><ellipse cx="53.333" cy="197.044" fill="#8ac3da" rx="37.333" ry="37.333" transform="matrix(.949 -.316 .316 .949 -59.574 26.977)"/><path d="m53.333 158.211c-21.412 0-38.833 17.42-38.833 38.833s17.421 38.834 38.833 38.834c21.413 0 38.834-17.42 38.834-38.834 0-21.413-17.421-38.833-38.834-38.833zm0 74.666c-19.759 0-35.833-16.075-35.833-35.834 0-19.758 16.074-35.833 35.833-35.833s35.834 16.075 35.834 35.833c0 19.76-16.075 35.834-35.834 35.834z" fill="#3a312a"/><path d="m67.906 184.331c-1.481-3.067-3.463-5.305-5.943-6.713-2.479-1.408-5.771-2.111-9.873-2.111-3.412 0-6.247.573-8.503 1.72s-4.027 2.839-5.313 5.077c-1.287 2.237-1.931 4.718-1.931 7.44 0 3.99 1.264 7.291 3.79 9.901 2.526 2.611 5.627 3.916 9.3 3.916 1.884 0 3.543-.326 4.979-.979 1.436-.652 2.834-1.678 4.195-3.077-.373 4.401-.933 7.282-1.678 8.643-1.025 1.846-2.452 2.769-4.279 2.769-1.025 0-1.893-.326-2.602-.979-.708-.652-1.212-1.771-1.51-3.356l-11.328 1.426c.672 2.182 1.632 4 2.881 5.454 1.249 1.455 2.815 2.56 4.699 3.314 1.883.755 4.456 1.133 7.72 1.133 5.518 0 9.835-1.72 12.949-5.16s4.671-8.862 4.671-16.264c0-5.036-.741-9.087-2.224-12.154zm-11.313 10.418c-1.063 1.175-2.396 1.762-3.999 1.762-1.548 0-2.839-.606-3.874-1.818s-1.553-2.965-1.553-5.258c0-2.275.499-3.981 1.497-5.119.997-1.137 2.251-1.706 3.762-1.706 1.604 0 2.965.629 4.083 1.888 1.119 1.259 1.679 2.997 1.679 5.216 0 2.182-.532 3.86-1.595 5.035z" fill="#87796f"/><path d="m69.257 183.678c-1.609-3.332-3.814-5.81-6.554-7.365-2.696-1.531-6.267-2.307-10.613-2.307-3.635 0-6.725.633-9.183 1.883-2.511 1.276-4.507 3.183-5.934 5.665-1.414 2.458-2.131 5.212-2.131 8.188 0 4.374 1.417 8.056 4.212 10.944 2.808 2.902 6.3 4.373 10.378 4.373 2.091 0 3.975-.375 5.599-1.113.565-.257 1.126-.565 1.68-.924-.369 2.593-.778 3.821-1.094 4.396-.994 1.79-2.17 1.997-2.968 1.997-.65 0-1.154-.185-1.585-.582-.318-.293-.759-.97-1.052-2.53-.147-.78-.876-1.305-1.662-1.211l-11.328 1.426c-.439.055-.832.302-1.072.674s-.305.832-.174 1.255c.73 2.371 1.799 4.386 3.177 5.99 1.401 1.633 3.178 2.888 5.278 3.729 2.081.835 4.789 1.241 8.278 1.241 5.935 0 10.665-1.902 14.062-5.653 3.356-3.708 5.059-9.519 5.059-17.271 0-5.238-.799-9.547-2.373-12.805zm-4.91 28.063c-2.843 3.141-6.715 4.667-11.837 4.667-3.057 0-5.466-.345-7.162-1.025-1.648-.661-3.034-1.636-4.119-2.899-.773-.901-1.432-1.98-1.966-3.223l8.138-1.024c.378 1.222.917 2.146 1.632 2.805.991.913 2.208 1.376 3.617 1.376 1.653 0 3.965-.614 5.595-3.549.867-1.583 1.457-4.518 1.857-9.236.053-.631-.296-1.228-.872-1.491-.577-.262-1.256-.136-1.698.318-1.225 1.258-2.483 2.186-3.741 2.758-1.232.56-2.698.844-4.357.844-3.28 0-5.97-1.131-8.222-3.459-2.267-2.342-3.368-5.239-3.368-8.858 0-2.444.582-4.695 1.731-6.692 1.148-1.998 2.683-3.465 4.692-4.487 2.032-1.033 4.665-1.557 7.823-1.557 3.821 0 6.894.645 9.133 1.916 2.199 1.248 3.993 3.288 5.333 6.061 1.376 2.848 2.074 6.717 2.074 11.5 0 6.982-1.442 12.115-4.283 15.255zm-11.921-30.631c-1.954 0-3.6.746-4.89 2.217-1.24 1.414-1.869 3.469-1.869 6.108 0 2.65.643 4.747 1.912 6.232 1.328 1.555 3.016 2.344 5.015 2.344 2.038 0 3.758-.759 5.111-2.255 1.315-1.454 1.982-3.486 1.982-6.042 0-2.587-.692-4.677-2.058-6.213-1.409-1.586-3.16-2.391-5.203-2.391zm3.054 12.633c-.783.866-1.7 1.268-2.887 1.268-1.112 0-1.98-.411-2.733-1.292-.792-.927-1.193-2.369-1.193-4.284 0-1.89.378-3.279 1.125-4.13.715-.815 1.552-1.195 2.634-1.195 1.182 0 2.123.44 2.962 1.384.862.97 1.3 2.39 1.3 4.22 0 1.788-.407 3.144-1.208 4.029z" fill="#3a312a"/><path d="m128 159.711c-20.619 0-37.333 16.715-37.333 37.333 0 18.368 13.268 33.626 30.741 36.741l13.676-.088c17.23-3.31 30.25-18.458 30.25-36.654-.001-20.617-16.715-37.332-37.334-37.332z" fill="#f16c7a"/><path d="m128 158.211c-21.412 0-38.833 17.42-38.833 38.833 0 18.842 13.448 34.915 31.977 38.218.09.016.178.024.266.024.713-.001 1.346-.511 1.475-1.237.146-.815-.397-1.595-1.213-1.74-17.096-3.048-29.504-17.879-29.504-35.265 0-19.758 16.074-35.833 35.833-35.833s35.833 16.075 35.833 35.833c0 17.153-12.21 31.949-29.033 35.181-.813.156-1.346.942-1.189 1.756.155.813.938 1.345 1.756 1.19 18.233-3.503 31.467-19.538 31.467-38.127-.002-21.413-17.423-38.833-38.835-38.833z" fill="#3a312a"/><path d="m141.427 193.77c-2.526-2.61-5.617-3.915-9.271-3.915-1.884 0-3.543.331-4.978.993-1.437.662-2.835 1.683-4.195 3.063.354-4.4.904-7.272 1.65-8.615 1.025-1.864 2.462-2.797 4.308-2.797 1.025 0 1.888.326 2.587.979s1.198 1.771 1.497 3.356l11.327-1.398c-.652-2.2-1.604-4.027-2.853-5.482-1.25-1.454-2.82-2.559-4.713-3.314s-4.471-1.132-7.733-1.132c-5.519 0-9.836 1.72-12.95 5.16s-4.671 8.862-4.671 16.264c0 5.053.741 9.114 2.224 12.181 1.482 3.067 3.464 5.3 5.943 6.699 2.479 1.398 5.772 2.098 9.873 2.098 3.412 0 6.252-.573 8.517-1.72 2.266-1.147 4.037-2.839 5.314-5.076 1.277-2.238 1.916-4.708 1.916-7.412-.002-4.012-1.266-7.321-3.792-9.932zm-8.517 15.327c-1.007 1.138-2.256 1.706-3.748 1.706-1.622 0-2.992-.629-4.111-1.888s-1.678-2.997-1.678-5.216c0-2.182.535-3.86 1.608-5.035 1.071-1.174 2.4-1.762 3.985-1.762 1.547 0 2.843.606 3.888 1.818 1.044 1.212 1.566 2.975 1.566 5.286.001 2.257-.503 3.954-1.51 5.091z" fill="#87796f"/><path d="m142.505 192.727c-2.809-2.901-6.29-4.373-10.35-4.373-2.093 0-3.978.38-5.606 1.13-.567.262-1.132.574-1.688.936.385-2.763.818-3.922 1.085-4.402.996-1.811 2.186-2.02 2.993-2.02.647 0 1.143.183 1.564.575.314.294.751.973 1.047 2.538.146.778.871 1.307 1.657 1.211l11.327-1.398c.438-.054.83-.298 1.071-.667s.309-.826.184-1.248c-.71-2.394-1.771-4.423-3.153-6.034-1.404-1.633-3.186-2.888-5.295-3.729-2.09-.834-4.802-1.239-8.289-1.239-5.936 0-10.667 1.902-14.063 5.653-3.357 3.708-5.059 9.519-5.059 17.271 0 5.258.799 9.576 2.373 12.833 1.611 3.333 3.817 5.807 6.557 7.352 2.696 1.52 6.266 2.291 10.61 2.291 3.635 0 6.729-.633 9.194-1.882 2.521-1.276 4.52-3.184 5.939-5.671 1.402-2.457 2.113-5.201 2.113-8.156.001-4.391-1.416-8.083-4.211-10.971zm-.507 17.641c-1.139 1.995-2.673 3.461-4.689 4.481-2.042 1.034-4.679 1.559-7.839 1.559-3.822 0-6.896-.641-9.136-1.904-2.197-1.239-3.99-3.272-5.33-6.045-1.376-2.847-2.074-6.726-2.074-11.528 0-6.984 1.441-12.118 4.283-15.257 2.843-3.141 6.715-4.667 11.838-4.667 3.057 0 5.472.345 7.178 1.025 1.655.661 3.046 1.636 4.131 2.898.775.903 1.43 1.99 1.954 3.245l-8.151 1.007c-.376-1.22-.909-2.143-1.613-2.8-.982-.917-2.197-1.383-3.61-1.383-1.668 0-3.997.62-5.619 3.569-.871 1.569-1.454 4.5-1.833 9.223-.051.629.298 1.222.871 1.484.573.263 1.25.138 1.692-.31 1.227-1.244 2.49-2.171 3.755-2.754 1.231-.567 2.694-.855 4.351-.855 3.261 0 5.941 1.131 8.193 3.458 2.267 2.342 3.368 5.249 3.368 8.886-.001 2.426-.579 4.67-1.72 6.668zm-13.031-14.965c-2.018 0-3.731.757-5.093 2.25-1.328 1.454-2.001 3.488-2.001 6.046 0 2.587.692 4.678 2.057 6.213 1.411 1.587 3.171 2.392 5.232 2.392 1.934 0 3.572-.744 4.871-2.212 1.253-1.415 1.888-3.461 1.888-6.085 0-2.67-.649-4.778-1.931-6.266-1.338-1.551-3.027-2.338-5.023-2.338zm2.82 12.7c-.726.819-1.56 1.201-2.625 1.201-1.2 0-2.15-.44-2.99-1.385-.874-.983-1.299-2.363-1.299-4.22 0-1.786.409-3.14 1.217-4.024.792-.868 1.706-1.272 2.877-1.272 1.114 0 1.988.412 2.751 1.296.799.927 1.203 2.376 1.203 4.308 0 1.868-.382 3.246-1.134 4.096z" fill="#3a312a"/><ellipse cx="128" cy="68.044" fill="#f16c7a" rx="37.333" ry="37.333" transform="matrix(.062 -.998 .998 .062 52.134 191.569)"/><path d="m128 29.211c-21.412 0-38.833 17.42-38.833 38.833s17.421 38.833 38.833 38.833 38.833-17.42 38.833-38.833-17.421-38.833-38.833-38.833zm0 74.666c-19.759 0-35.833-16.075-35.833-35.833s16.074-35.833 35.833-35.833 35.833 16.075 35.833 35.833c0 19.759-16.074 35.833-35.833 35.833z" fill="#3a312a"/><path d="m140.882 71.707v-25.2h-9.93l-20.753 24.669v9.37h20.753v7.664h9.93v-7.664h5.146v-8.838h-5.146zm-9.93 0h-10.966l10.966-12.904z" fill="#87796f"/><path d="m146.028 70.207h-3.646v-23.7c0-.829-.672-1.5-1.5-1.5h-9.93c-.442 0-.863.196-1.147.534l-20.753 24.669c-.228.27-.353.612-.353.966v9.37c0 .829.672 1.5 1.5 1.5h19.253v6.164c0 .829.672 1.5 1.5 1.5h9.93c.828 0 1.5-.671 1.5-1.5v-6.164h3.646c.828 0 1.5-.671 1.5-1.5v-8.838c0-.83-.672-1.501-1.5-1.501zm-1.5 8.838h-3.646c-.828 0-1.5.671-1.5 1.5v6.164h-6.93v-6.164c0-.829-.672-1.5-1.5-1.5h-19.253v-7.323l19.951-23.716h7.731v23.7c0 .829.672 1.5 1.5 1.5h3.646v5.839zm-13.058-21.65c-.589-.218-1.253-.043-1.66.437l-10.966 12.904c-.379.445-.464 1.07-.219 1.601.245.53.776.87 1.361.87h10.966c.828 0 1.5-.671 1.5-1.5v-12.904c0-.629-.392-1.191-.982-1.408zm-2.018 12.812h-6.223l6.223-7.322z" fill="#3a312a"/><ellipse cx="202.667" cy="197.044" fill="#f5e1c5" rx="37.333" ry="37.333" transform="matrix(.944 -.331 .331 .944 -53.798 78.192)"/><path d="m202.667 158.211c-21.413 0-38.834 17.42-38.834 38.833s17.421 38.834 38.834 38.834c21.412 0 38.833-17.42 38.833-38.834 0-21.413-17.421-38.833-38.833-38.833zm0 74.666c-19.759 0-35.834-16.075-35.834-35.834 0-19.758 16.075-35.833 35.834-35.833s35.833 16.075 35.833 35.833c0 19.76-16.074 35.834-35.833 35.834z" fill="#3a312a"/><path d="m217.912 199.392c-1.091-1.752-2.746-3.161-4.965-4.224 1.679-1.119 2.909-2.274 3.692-3.468 1.044-1.603 1.566-3.328 1.566-5.174 0-3.169-1.311-5.799-3.93-7.887-2.62-2.088-6.671-3.132-12.153-3.132-4.14 0-7.468.839-9.985 2.517-3.226 2.182-4.838 4.988-4.838 8.419 0 2.088.559 3.934 1.678 5.538.82 1.175 2.126 2.238 3.916 3.188-2.331.914-4.056 2.206-5.175 3.874-1.118 1.669-1.678 3.706-1.678 6.111 0 2.461.597 4.69 1.79 6.685 1.193 1.996 2.937 3.506 5.23 4.531s5.612 1.538 9.957 1.538c2.312 0 4.489-.228 6.53-.685 2.042-.457 3.748-1.17 5.119-2.14 1.37-.97 2.526-2.345 3.468-4.125.941-1.781 1.412-3.696 1.412-5.748.002-2.126-.543-4.065-1.634-5.818zm-18.599-15.649c.867-.867 1.99-1.301 3.37-1.301 1.361 0 2.479.443 3.356 1.329.876.886 1.314 2.038 1.314 3.454 0 1.361-.42 2.471-1.259 3.329s-1.911 1.287-3.216 1.287c-1.474 0-2.653-.433-3.539-1.301-.886-.867-1.328-2.009-1.328-3.426.001-1.38.434-2.504 1.302-3.371zm7.173 25.424c-1.081 1.165-2.303 1.748-3.664 1.748-1.417 0-2.676-.574-3.775-1.72-1.101-1.147-1.65-2.624-1.65-4.433 0-1.902.526-3.413 1.58-4.531 1.054-1.119 2.289-1.678 3.706-1.678 1.436 0 2.699.578 3.79 1.734s1.636 2.639 1.636 4.447c-.001 1.79-.542 3.268-1.623 4.433z" fill="#87796f"/><path d="m202.683 197.053c-1.84 0-3.454.723-4.798 2.15-1.319 1.4-1.988 3.271-1.988 5.56 0 2.201.695 4.042 2.067 5.471 1.389 1.448 3.023 2.182 4.858 2.182 1.79 0 3.393-.75 4.764-2.228 1.342-1.447 2.022-3.281 2.022-5.453 0-2.196-.688-4.039-2.045-5.477-1.379-1.464-3.022-2.205-4.88-2.205zm2.704 11.095c-.792.853-1.631 1.268-2.564 1.268-1 0-1.881-.412-2.693-1.259-.829-.864-1.232-1.975-1.232-3.395 0-1.52.384-2.665 1.172-3.503.775-.823 1.606-1.207 2.614-1.207 1.014 0 1.896.414 2.699 1.264.825.875 1.227 1.993 1.227 3.418-.002 1.411-.401 2.527-1.223 3.414zm-2.508-14.808c1.718 0 3.161-.585 4.288-1.738 1.119-1.144 1.687-2.617 1.687-4.377 0-1.819-.588-3.336-1.749-4.51-1.165-1.176-2.653-1.773-4.422-1.773-1.785 0-3.276.585-4.431 1.74s-1.74 2.646-1.74 4.431c0 1.83.599 3.343 1.778 4.498 1.172 1.148 2.716 1.729 4.589 1.729zm-2.506-8.536c.58-.58 1.335-.861 2.31-.861.965 0 1.693.281 2.29.883.593.6.881 1.384.881 2.399 0 .962-.271 1.708-.831 2.28-.558.57-1.238.835-2.144.835-1.075 0-1.89-.286-2.49-.873-.59-.578-.877-1.348-.877-2.354 0-.974.282-1.73.861-2.309zm18.813 13.796c-.866-1.393-2.047-2.598-3.523-3.602.93-.801 1.678-1.63 2.234-2.479 1.201-1.843 1.81-3.86 1.81-5.993 0-3.634-1.512-6.682-4.495-9.06-2.88-2.295-7.284-3.46-13.088-3.46-4.422 0-8.062.932-10.826 2.775-3.647 2.467-5.497 5.718-5.497 9.662 0 2.393.655 4.544 1.948 6.396.535.767 1.242 1.492 2.111 2.167-1.412.877-2.546 1.949-3.387 3.202-1.282 1.913-1.932 4.25-1.932 6.946 0 2.725.674 5.233 2.003 7.455 1.349 2.256 3.336 3.982 5.905 5.131 2.513 1.122 5.97 1.668 10.569 1.668 2.411 0 4.718-.243 6.857-.721 2.228-.499 4.131-1.299 5.658-2.379 1.559-1.103 2.88-2.667 3.928-4.648 1.053-1.991 1.586-4.161 1.586-6.449.001-2.402-.626-4.626-1.861-6.611zm-2.376 11.656c-.825 1.562-1.838 2.774-3.008 3.602-1.201.85-2.742 1.489-4.58 1.9-1.925.431-4.012.649-6.203.649-4.111 0-7.256-.474-9.345-1.408-2.024-.905-3.515-2.19-4.556-3.932-1.047-1.75-1.577-3.74-1.577-5.915 0-2.091.479-3.866 1.424-5.276.94-1.402 2.446-2.517 4.477-3.313.545-.214.916-.726.949-1.311.034-.585-.276-1.136-.794-1.411-1.569-.834-2.71-1.75-3.389-2.722-.947-1.357-1.408-2.888-1.408-4.679 0-2.927 1.367-5.275 4.17-7.171 2.255-1.503 5.334-2.265 9.153-2.265 5.108 0 8.883.944 11.218 2.805 2.265 1.805 3.365 4.001 3.365 6.714 0 1.563-.433 2.988-1.32 4.352-.668 1.018-1.769 2.042-3.271 3.043-.448.299-.702.816-.664 1.354s.361 1.014.848 1.247c1.947.933 3.407 2.166 4.34 3.664.948 1.524 1.409 3.167 1.409 5.025 0 1.796-.417 3.494-1.238 5.048z" fill="#3a312a"/><path d="m90.544 95.114c-7.945 0-15.305 2.49-21.358 6.72l-9.94 10.27c-3.812 5.853-6.036 12.837-6.036 20.343 0 20.619 16.715 37.333 37.333 37.333 20.619 0 37.333-16.715 37.333-37.333.001-20.618-16.714-37.333-37.332-37.333z" fill="#f5e1c5"/><path d="m90.544 93.614c-7.991 0-15.674 2.417-22.217 6.991-.679.475-.845 1.41-.37 2.089.476.68 1.412.844 2.089.37 6.037-4.219 13.125-6.45 20.498-6.45 19.759 0 35.833 16.075 35.833 35.833 0 19.759-16.074 35.833-35.833 35.833s-35.834-16.075-35.834-35.833c0-6.955 2.003-13.706 5.793-19.524.452-.694.256-1.624-.438-2.076-.69-.451-1.624-.257-2.075.438-4.108 6.307-6.279 13.624-6.279 21.162 0 21.413 17.421 38.833 38.834 38.833 21.412 0 38.833-17.42 38.833-38.833-.001-21.412-17.422-38.833-38.834-38.833z" fill="#3a312a"/><path d="m74.113 111.609v9.621h20.25c-4.158 5.165-7.197 10.013-9.118 14.544s-3.328 10.144-4.223 16.837h11.355c.372-4.811 1.1-8.978 2.182-12.502 1.36-4.531 3.216-8.643 5.565-12.334 1.939-3.039 4.353-5.864 7.244-8.475v-7.691z" fill="#87796f"/><path d="m107.369 110.109h-33.256c-.828 0-1.5.671-1.5 1.5v9.621c0 .829.672 1.5 1.5 1.5h17.183c-3.278 4.364-5.773 8.545-7.432 12.459-1.964 4.632-3.42 10.427-4.328 17.224-.058.429.073.861.357 1.186.285.326.696.512 1.129.512h11.355c.783 0 1.436-.603 1.495-1.384.362-4.677 1.075-8.774 2.123-12.187 1.314-4.377 3.129-8.401 5.393-11.958 1.858-2.913 4.209-5.661 6.985-8.168.314-.285.494-.689.494-1.113v-7.691c.002-.829-.67-1.501-1.498-1.501zm-1.5 8.532c-2.762 2.565-5.117 5.364-7.01 8.33-2.413 3.792-4.343 8.067-5.733 12.699-1.004 3.271-1.718 7.114-2.125 11.443h-8.25c.878-5.796 2.18-10.752 3.875-14.752 1.857-4.382 4.854-9.156 8.905-14.19.362-.45.435-1.067.185-1.588-.249-.521-.775-.852-1.352-.852h-18.75v-6.621h30.256v5.531z" fill="#3a312a"/><ellipse cx="165.211" cy="132.448" fill="#8ac3da" rx="37.333" ry="37.333" transform="matrix(.615 -.788 .788 .615 -40.858 181.157)"/><path d="m165.211 93.614c-21.413 0-38.834 17.42-38.834 38.833s17.421 38.833 38.834 38.833c21.412 0 38.833-17.42 38.833-38.833 0-21.412-17.421-38.833-38.833-38.833zm0 74.667c-19.759 0-35.834-16.075-35.834-35.833 0-19.759 16.075-35.833 35.834-35.833s35.833 16.075 35.833 35.833c0 19.759-16.074 35.833-35.833 35.833z" fill="#3a312a"/><path d="m178.372 128.782c-2.555-2.479-5.883-3.72-9.985-3.72-1.212 0-2.438.149-3.678.447-1.24.299-2.494.746-3.762 1.343l.979-6.154h18.32v-9.09h-27.046l-3.608 22.039 9.705 1.398c.913-1.025 1.753-1.734 2.518-2.125 1.025-.541 2.088-.811 3.188-.811 1.734 0 3.123.569 4.167 1.706 1.044 1.138 1.566 2.928 1.566 5.37 0 2.387-.518 4.182-1.552 5.384-1.035 1.203-2.346 1.804-3.93 1.804-1.418 0-2.639-.48-3.664-1.44-1.026-.96-1.679-2.363-1.958-4.21l-11.523 1.259c.56 1.921 1.259 3.524 2.098 4.81.839 1.287 1.935 2.438 3.286 3.455 1.352 1.017 2.993 1.781 4.923 2.294s4.246.769 6.95.769c3.767 0 6.857-.643 9.272-1.93 2.414-1.287 4.279-3.151 5.594-5.594 1.314-2.442 1.972-4.988 1.972-7.635 0-3.765-1.277-6.888-3.832-9.369z" fill="#87796f"/><path d="m179.417 127.706c-2.833-2.75-6.544-4.144-11.03-4.144-1.322 0-2.678.165-4.029.489-.501.121-1.007.265-1.515.432l.363-2.284h17.04c.828 0 1.5-.671 1.5-1.5v-9.09c0-.829-.672-1.5-1.5-1.5h-27.046c-.735 0-1.361.532-1.48 1.258l-3.608 22.04c-.064.397.032.804.271 1.129.238.325.598.54.996.598l9.705 1.398c.496.07.998-.111 1.334-.487.978-1.098 1.672-1.579 2.097-1.796.814-.43 1.629-.638 2.489-.638 1.307 0 2.309.399 3.062 1.22.777.847 1.172 2.313 1.172 4.356 0 2.006-.4 3.489-1.188 4.406-.753.875-1.641 1.282-2.793 1.282-1.032 0-1.896-.338-2.64-1.036-.769-.719-1.272-1.842-1.499-3.338-.12-.795-.843-1.351-1.646-1.267l-11.523 1.259c-.44.048-.838.289-1.084.658s-.317.827-.193 1.253c.599 2.054 1.366 3.807 2.281 5.211.931 1.427 2.156 2.717 3.642 3.834 1.499 1.128 3.329 1.984 5.439 2.544 2.046.543 4.514.819 7.335.819 3.998 0 7.354-.708 9.978-2.106 2.67-1.423 4.76-3.511 6.21-6.207 1.427-2.652 2.15-5.46 2.15-8.346-.003-4.17-1.445-7.685-4.29-10.447zm-.506 17.371c-1.181 2.196-2.81 3.825-4.978 4.981-2.185 1.164-5.066 1.753-8.567 1.753-2.562 0-4.77-.242-6.565-.719-1.734-.461-3.217-1.148-4.406-2.043-1.205-.907-2.191-1.941-2.931-3.075-.498-.762-.947-1.667-1.343-2.702l8.328-.91c.424 1.517 1.133 2.746 2.116 3.666 1.307 1.225 2.885 1.846 4.689 1.846 2.034 0 3.738-.782 5.067-2.326 1.27-1.477 1.914-3.618 1.914-6.362 0-2.818-.66-4.966-1.961-6.384-1.336-1.455-3.109-2.192-5.272-2.192-1.341 0-2.649.331-3.872.976-.771.395-1.56 1.008-2.396 1.864l-7.415-1.068 3.155-19.273h24.271v6.09h-16.82c-.737 0-1.365.536-1.481 1.265l-.979 6.153c-.087.549.136 1.101.58 1.435.443.333 1.038.396 1.54.158 1.169-.55 2.337-.967 3.474-1.241 1.121-.269 2.24-.406 3.327-.406 3.73 0 6.655 1.078 8.94 3.296 2.272 2.207 3.377 4.919 3.377 8.294.001 2.384-.602 4.714-1.792 6.924z" fill="#3a312a"/><path d="m47.393 31.3c-.974 11.564-13.025 13.39-13.025 13.39 10.347.487 12.925 14.059 12.925 14.059.221-9.677 13.321-14.202 13.321-14.202-9.813-.588-13.221-13.247-13.221-13.247z" fill="#d5de58"/><path d="m60.704 43.048c-8.604-.514-11.832-12.024-11.863-12.14-.19-.702-.851-1.161-1.584-1.102-.725.066-1.298.642-1.359 1.367-.859 10.215-11.312 11.964-11.754 12.033-.763.115-1.313.79-1.273 1.56s.657 1.384 1.428 1.421c9.028.425 11.499 12.718 11.522 12.842.138.711.76 1.217 1.473 1.217.042 0 .084-.002.126-.005.765-.064 1.357-.693 1.375-1.459.193-8.508 12.19-12.777 12.312-12.819.676-.235 1.092-.915.994-1.623-.1-.708-.683-1.249-1.397-1.292zm-13.565 10.346c-1.357-3.13-3.709-6.907-7.587-8.876 2.931-1.405 6.408-3.913 8.201-8.273 1.551 3.071 4.2 6.88 8.334 8.722-3.007 1.64-6.922 4.406-8.948 8.427z" fill="#3a312a"/><path d="m25.694 48.28c-.689 8.179-9.212 9.471-9.212 9.471 7.318.344 9.142 9.944 9.142 9.944.156-6.844 9.422-10.045 9.422-10.045-6.941-.416-9.352-9.37-9.352-9.37z" fill="#d5de58"/><path d="m35.136 56.152c-5.767-.345-7.972-8.185-7.993-8.264-.19-.702-.86-1.164-1.582-1.102-.725.065-1.3.642-1.361 1.368-.578 6.87-7.646 8.066-7.942 8.113-.763.115-1.313.79-1.273 1.56s.657 1.384 1.428 1.421c6.035.284 7.724 8.644 7.739 8.726.136.713.759 1.22 1.473 1.22.041 0 .083-.001.125-.005.765-.063 1.358-.694 1.376-1.461.13-5.709 8.331-8.634 8.412-8.662.676-.234 1.093-.913.996-1.622-.099-.708-.684-1.249-1.398-1.292zm-9.585 6.795c-.924-1.886-2.34-3.947-4.447-5.28 1.856-1.042 3.697-2.63 4.871-4.916 1.057 1.873 2.654 3.954 4.941 5.223-1.851 1.102-3.989 2.741-5.365 4.973z" fill="#3a312a"/><path d="m25.694 21.622c-.689 8.179-9.212 9.471-9.212 9.471 7.318.344 9.142 9.944 9.142 9.944.156-6.845 9.422-10.045 9.422-10.045-6.941-.415-9.352-9.37-9.352-9.37z" fill="#d5de58"/><path d="m35.136 29.495c-5.767-.345-7.972-8.185-7.993-8.265-.19-.702-.86-1.162-1.582-1.102-.725.065-1.3.643-1.361 1.368-.578 6.871-7.646 8.067-7.942 8.114-.763.115-1.313.79-1.273 1.56s.657 1.384 1.428 1.421c6.035.284 7.724 8.644 7.739 8.726.136.713.759 1.22 1.473 1.22.041 0 .083-.001.125-.005.765-.063 1.358-.694 1.376-1.461.13-5.71 8.331-8.634 8.412-8.662.676-.234 1.093-.913.996-1.622-.099-.708-.684-1.249-1.398-1.292zm-9.585 6.795c-.924-1.885-2.34-3.947-4.447-5.28 1.857-1.041 3.697-2.629 4.871-4.916 1.057 1.874 2.654 3.954 4.941 5.224-1.85 1.1-3.989 2.739-5.365 4.972z" fill="#3a312a"/><path d="m202.67 161.212c-2.57 0-5.08.27-7.5.79 16.17 3.46 28.33 17.85 28.33 35.04s-12.16 31.59-28.33 35.05c2.42.52 4.93.79 7.5.79 19.76 0 35.83-16.08 35.83-35.84s-16.07-35.83-35.83-35.83z" fill="#decaad"/></svg>