<svg id="Layer_1" enable-background="new 0 0 511.504 511.504" height="512" viewBox="0 0 511.504 511.504" width="512" xmlns="http://www.w3.org/2000/svg"><g><path d="m359.612 7.5h-207.72l-103.86 179.89 103.86 179.89h207.72l103.86-179.89zm-17.32 329.78h-173.08l-86.54-149.89 86.54-149.89h173.08l86.54 149.89z" fill="#72869e"/><path d="m93.002 438.09h325.5v65.91h-325.5z" fill="#72869e"/><path d="m309.752 187.39c0 29.82-24.18 54-54 54s-54-24.18-54-54c0-31.969 27.874-57.716 61.06-53.55 3.12 12.35 16.993 18.304 28.01 12.49 11.59 9.9 18.93 24.63 18.93 41.06z" fill="#72869e"/><circle cx="255.752" cy="187.391" fill="#faed8a" r="19.532"/><g><path d="m198.802 367.28-16.54 70.81h-30.8l16.54-70.81z" fill="#faed8a"/></g><g><path d="m360.042 438.09h-30.8l-16.54-70.81h30.8z" fill="#faed8a"/></g><path d="m205.352 291.68c0 6.26 2.94 11.83 7.52 15.39l-7.06 30.21h-30.8l30.42-130.26c4.786 12.265 13.861 22.031 24.33 27.71l-8.83 37.83c-8.89 1.82-15.58 9.69-15.58 19.12z" fill="#faed8a"/><path d="m336.492 337.28h-30.8l-23.95-102.55c10.45-5.668 19.537-15.426 24.33-27.71z" fill="#faed8a"/><circle cx="354.085" cy="162.859" fill="#bfedb3" r="19.531"/><circle cx="281.742" cy="129.035" fill="#ea5172" r="19.531"/><circle cx="164.471" cy="143.715" fill="#ea5172" r="19.531"/><circle cx="219.348" cy="83.099" fill="#bfedb3" r="19.531"/><circle cx="149.388" cy="222.047" fill="#bfedb3" r="19.531"/><circle cx="224.888" cy="291.681" fill="#ea5172" r="19.531"/><circle cx="354.085" cy="229.359" fill="#bfedb3" r="19.531"/><g fill="#536275"><path d="m362.292 337.28 86.54-149.89-86.54-149.89h-20l86.54 149.89-86.54 149.89z"/><path d="m171.892 7.5h-20l-103.86 179.89 103.86 179.89h20l-103.86-179.89z"/></g><path d="m93.002 438.09h20v65.91h-20z" fill="#536275"/><path d="m221.752 187.39c0-25.47 17.645-46.811 41.373-52.5-.109-.348-.223-.694-.313-1.05-33.14-4.16-61.06 21.535-61.06 53.55 0 33.792 30.694 59.302 64 53.06-25.041-4.692-44-26.658-44-53.06z" fill="#536275"/><g fill="#e8ab4c"><path d="m265.752 170.644c-12.994-7.789-29.532 1.637-29.532 16.747 0 15.095 16.524 24.545 29.532 16.747-12.701-7.614-12.699-25.882 0-33.494z"/><path d="m168.002 367.28-16.54 70.81h20l16.54-70.81z"/><path d="m312.702 367.28 16.54 70.81h20l-16.54-70.81z"/><path d="m207.923 281.994 12.549-53.736c-6.603-5.704-11.815-12.973-15.04-21.239l-30.42 130.26h20l10.375-44.426c-.226-3.814.649-7.564 2.536-10.859z"/><path d="m311.032 228.259-4.96-21.239c-4.785 12.264-13.861 22.032-24.33 27.71l23.95 102.55h20l-23.95-102.55c3.034-1.646 6.292-3.881 9.29-6.471z"/></g><path d="m364.085 146.104c-12.939-7.74-29.531 1.56-29.531 16.755 0 15.187 16.585 24.499 29.531 16.755-12.693-7.594-12.707-25.908 0-33.51z" fill="#0ea8b2"/><path d="m291.742 112.28c-12.939-7.74-29.531 1.56-29.531 16.755 0 15.187 16.585 24.499 29.531 16.755-12.693-7.594-12.707-25.908 0-33.51z" fill="#b3387f"/><path d="m174.471 126.961c-12.939-7.74-29.531 1.561-29.531 16.755 0 15.187 16.585 24.499 29.531 16.755-12.693-7.595-12.707-25.908 0-33.51z" fill="#b3387f"/><path d="m229.348 66.344c-12.939-7.74-29.531 1.561-29.531 16.755 0 15.188 16.586 24.499 29.531 16.755-12.693-7.594-12.707-25.908 0-33.51z" fill="#0ea8b2"/><path d="m159.388 205.293c-12.939-7.74-29.531 1.561-29.531 16.755 0 15.187 16.585 24.499 29.531 16.755-12.694-7.595-12.708-25.908 0-33.51z" fill="#0ea8b2"/><path d="m234.888 274.927c-12.939-7.74-29.531 1.56-29.531 16.755 0 15.187 16.585 24.499 29.531 16.755-12.694-7.595-12.708-25.909 0-33.51z" fill="#b3387f"/><path d="m364.085 212.604c-12.939-7.74-29.531 1.56-29.531 16.755 0 15.187 16.585 24.499 29.531 16.755-12.693-7.594-12.707-25.908 0-33.51z" fill="#0ea8b2"/><g><path d="m103.638 268.71-46.946-81.32 99.53-172.39h199.06l43.685 75.66 12.99-7.5-48.015-83.16h-216.38l-108.19 187.39 51.275 88.82z"/><path d="m454.812 187.39-99.53 172.39h-199.06l-44.815-77.62-12.99 7.5 49.145 85.12h216.38l108.19-187.39-52.415-90.78-12.99 7.5z"/><path d="m346.622 344.78 90.87-157.391-90.87-157.389h-181.74l-90.87 157.39 90.87 157.391c9.874-.001 171.287-.001 181.74-.001zm-162.157-15 24.059-103.019c3.533 4.232 7.535 7.795 11.488 10.629-.004.01-.008.019-.012.029.408.292.815.586 1.23.869-6.897 29.546-6.572 28.376-6.672 28.418-17.054 7.08-22.09 28.625-10.213 42.515-.008.001-.015.003-.023.004.091.106.176.217.269.322l-4.729 20.233zm102.362-190.021c-7.084 3.362-14.709-.524-16.653-7.453-2.198-7.749 3.683-15.302 11.568-15.302 6.634 0 12.031 5.397 12.031 12.031 0 4.941-2.991 8.847-6.946 10.724zm-29.37 1.162c5.727 11.742 19.074 17.701 31.692 14.114 8.375 8.637 13.104 20.204 13.104 32.354 0 25.641-20.86 46.5-46.5 46.5s-46.5-20.859-46.5-46.5c-.001-26.201 21.781-47.415 48.204-46.468zm-44.6 150.761c0-6.634 5.397-12.031 12.031-12.031s12.031 5.397 12.031 12.031-5.397 12.03-12.031 12.03-12.031-5.397-12.031-12.03zm2.41 38.098 2.791-11.944c17.173 4.487 33.86-8.561 33.86-26.155 0-13.034-9.273-23.943-21.568-26.476l4.651-19.927c13.343 4.798 28.053 4.836 41.502 0l19.735 84.502zm96.375 0-21.368-91.494c.382-.26.757-.532 1.133-.8-.003-.009-.006-.019-.009-.028 2.928-2.091 5.67-4.425 8.186-6.985.002.006.003.012.005.018 1.178-1.199 2.314-2.44 3.39-3.73l24.059 103.02h-15.396zm-138.1-284.78h164.42l82.21 142.39-79.02 136.865-27.278-116.804c7.342-21.209 2.444-44.242-11.88-60.576 4.211-4.758 6.779-10.998 6.779-17.839 0-14.905-12.126-27.031-27.031-27.031-13.853 0-25.299 10.477-26.847 23.922-41.766.593-70.964 41.954-57.266 81.525l-27.278 116.804-79.019-136.866z"/><path d="m365.991 430.585-8.176-35.011-14.607 3.412 7.38 31.599h-15.396l-8.176-35.011-14.607 3.412 7.38 31.599h-128.073l7.38-31.599-14.607-3.412-8.176 35.011h-15.396l7.38-31.599-14.607-3.412-8.176 35.011c-60.374 0-60.009-.096-60.009.005-.1 0-.002-1.985-.002 80.91h340.498c.1 0 .002 1.985.002-80.91h-.003c0-.101.162-.005-60.009-.005zm-265.487 65.915v-50.91h310.496v50.91z"/><path d="m255.752 214.423c14.905 0 27.032-12.127 27.032-27.032s-12.126-27.032-27.032-27.032-27.032 12.127-27.032 27.032 12.127 27.032 27.032 27.032zm0-39.065c6.634 0 12.032 5.397 12.032 12.032s-5.397 12.032-12.032 12.032-12.032-5.397-12.032-12.032 5.398-12.032 12.032-12.032z"/><path d="m354.086 189.89c14.905 0 27.031-12.126 27.031-27.031s-12.126-27.031-27.031-27.031-27.031 12.126-27.031 27.031 12.125 27.031 27.031 27.031zm0-39.063c6.634 0 12.031 5.397 12.031 12.031s-5.397 12.031-12.031 12.031-12.031-5.397-12.031-12.031 5.396-12.031 12.031-12.031z"/><path d="m164.471 170.746c14.905 0 27.031-12.126 27.031-27.031s-12.126-27.031-27.031-27.031-27.031 12.126-27.031 27.031 12.126 27.031 27.031 27.031zm0-39.062c6.634 0 12.031 5.397 12.031 12.031s-5.397 12.031-12.031 12.031-12.031-5.397-12.031-12.031 5.397-12.031 12.031-12.031z"/><path d="m219.348 110.13c14.905 0 27.031-12.126 27.031-27.031s-12.126-27.031-27.031-27.031-27.031 12.126-27.031 27.031 12.126 27.031 27.031 27.031zm0-39.063c6.634 0 12.031 5.397 12.031 12.031s-5.397 12.031-12.031 12.031-12.031-5.397-12.031-12.031 5.397-12.031 12.031-12.031z"/><path d="m176.419 222.047c0-14.905-12.126-27.031-27.031-27.031s-27.031 12.126-27.031 27.031 12.126 27.031 27.031 27.031 27.031-12.126 27.031-27.031zm-27.032 12.031c-6.634 0-12.031-5.397-12.031-12.031s5.397-12.031 12.031-12.031 12.031 5.397 12.031 12.031-5.396 12.031-12.031 12.031z"/><path d="m354.086 256.39c14.905 0 27.031-12.126 27.031-27.031s-12.126-27.031-27.031-27.031-27.031 12.126-27.031 27.031 12.125 27.031 27.031 27.031zm0-39.063c6.634 0 12.031 5.397 12.031 12.031s-5.397 12.031-12.031 12.031-12.031-5.397-12.031-12.031 5.396-12.031 12.031-12.031z"/></g><g><path d="m310.26 478.545h-15v-15h15zm-45 0h-15v-15h15zm-45 0h-15v-15h15z" fill="#fff"/></g></g></svg>