<svg height="512" viewBox="0 0 60 60" width="512" xmlns="http://www.w3.org/2000/svg"><g id="Page-1" fill="none" fill-rule="evenodd"><g id="010---Bingo" fill-rule="nonzero"><path id="Shape" d="m43 4v25.04c-5.4888294.3650933-10.3371103 3.7063073-12.6322712 8.705585s-1.6686932 10.8539406 1.6322712 15.254415h-28c-1.65685425 0-3-1.3431458-3-3v-46c0-1.65685425 1.34314575-3 3-3h36c1.6568542 0 3 1.34314575 3 3z" fill="#ffdc00"/><path id="Shape" d="m43 4v25.04c-1.108374.0694886-2.2053395.2640574-3.27.58l.27-.58v-25.04c0-1.65685425-1.3431458-3-3-3h3c1.6568542 0 3 1.34314575 3 3z" fill="#fec108"/><path id="Shape" d="m39 19v6h-8v-8h6c1.1032019.0032948 1.9967052.8967981 2 2z" fill="#f5f5f5"/><path id="Shape" d="m39 25v4.86l-1.5 3.14h-6.5v-8z" fill="#cfd8dc"/><path id="Rectangle-path" d="m22 17h9v8h-9z" fill="#cfd8dc"/><path id="Shape" d="m37.5 33-3.82 8h-11.68v-8z" fill="#cfd8dc"/><path id="Shape" d="m33.68 41-3.82 8h-7.86v-8z" fill="#f5f5f5"/><path id="Rectangle-path" d="m13 41h9v8h-9z" fill="#cfd8dc"/><path id="Rectangle-path" d="m13 17h9v8h-9z" fill="#f5f5f5"/><path id="Shape" d="m13 17v8h-8v-6c.0032948-1.1032019.89679813-1.9967052 2-2z" fill="#cfd8dc"/><path id="Rectangle-path" d="m5 25h8v8h-8z" fill="#f5f5f5"/><path id="Rectangle-path" d="m5 33h8v8h-8z" fill="#cfd8dc"/><path id="Shape" d="m13 41v8h-6c-1.10320187-.0032948-1.9967052-.8967981-2-2v-6z" fill="#f5f5f5"/><path id="Rectangle-path" d="m13 25h9v8h-9z" fill="#cfd8dc"/><path id="Rectangle-path" d="m22 25h9v8h-9z" fill="#f5f5f5"/><path id="Rectangle-path" d="m13 33h9v8h-9z" fill="#f5f5f5"/><circle id="Oval" cx="44" cy="44" fill="#9d27b0" r="15"/><path id="Shape" d="m44 29c-.507 0-1.007.027-1.5.076 7.6612948.774165 13.491947 7.2236903 13.491947 14.924s-5.8306522 14.149835-13.491947 14.924c.493.049.993.076 1.5.076 8.2842712-.0000001 14.9999998-6.7157288 14.9999998-15s-6.7157286-14.9999999-14.9999998-15z" fill="#6a1b9a"/><circle id="Oval" cx="44" cy="44" fill="#f5f5f5" r="7"/><path id="Shape" d="m44 37c-.5044849.0007873-1.0074065.0561087-1.5.165 3.2064126.7087816 5.4891145 3.5511831 5.4891145 6.835s-2.2827019 6.1262184-5.4891145 6.835c2.6211486.579393 5.3427728-.3912156 7.0057888-2.4984637 1.663016-2.107248 1.9744743-4.9799318.8017312-7.3946348-1.172743-2.4147029-3.6231022-3.9460614-6.30752-3.9419015z" fill="#cfd8dc"/><g fill="#000"><path id="Shape" d="m41 42c0 .5522847.4477153 1 1 1h2.233l-2.09 3.485c-.1918041.3065026-.2032165.6926712-.0298476 1.0099658.173369.3172946.5045139.5162906.8660598.5204443.3615458.0041536.6971751-.1871822.8777878-.5004101l3-5c.1855768-.3088826.19062-.6937205.0132014-1.0073601-.1774186-.3136397-.5098582-.5075714-.8702014-.5076399h-4c-.5522847 0-1 .4477153-1 1z"/><path id="Shape" d="m36 44c0 4.418278 3.581722 8 8 8s8-3.581722 8-8-3.581722-8-8-8c-4.4162219.0049599-7.9950401 3.5837781-8 8zm14 0c0 2.4267735-1.4618531 4.6145912-3.7038994 5.5432772s-4.8227533.4153515-6.5387413-1.3006365-2.2293225-4.296695-1.3006365-6.5387413 3.1165037-3.7038994 5.5432772-3.7038994c3.3123376.0033074 5.9966926 2.6876624 6 6z"/><path id="Shape" d="m33.313 38.544c-.2518418.4915334-.0575334 1.0941581.434 1.346.4915334.2518418 1.0941581.0575334 1.346-.434 1.7034044-3.3520307 5.1469911-5.4614063 8.907-5.456.5522847 0 1-.4477153 1-1s-.4477153-1-1-1c-4.5109303-.0070345-8.6426108 2.5229287-10.687 6.544z"/><circle id="Oval" cx="33" cy="43" r="1"/><path id="Shape" d="m4 54h27.53c4.6655332 5.8179265 12.7326785 7.6393485 19.44535 4.3904242 6.7126714-3.2489244 10.2891181-10.70583 8.6208013-17.9744053-1.6683169-7.2685753-8.1385742-12.4195152-15.5961513-12.4160189v-24c0-2.209139-1.790861-4-4-4h-36c-2.209139 0-4 1.790861-4 4v46c0 2.209139 1.790861 4 4 4zm54-10c0 7.7319865-6.2680135 14-14 14s-14-6.2680135-14-14 6.2680135-14 14-14c7.7285595.0082673 13.9917327 6.2714405 14 14zm-24.547-12h-1.453v-6h6v3.178c-1.6633467.6787254-3.2005099 1.6327334-4.547 2.822zm-19.453 0v-6h7v6zm7 2v6h-7v-6zm2-8h7v6h-7zm15-2h-6v-6h5c.5522847 0 1 .4477153 1 1zm-8 0h-7v-6h7zm-9 0h-7v-6h7zm-9 0h-6v-5c0-.5522847.44771525-1 1-1h5zm-6 2h6v6h-6zm0 8h6v6h-6zm0 8h6v6h-5c-.55228475 0-1-.4477153-1-1zm8 0h7v6h-7zm9 0h5.139c-.2741811 2.0057881-.1422325 4.0462307.388 6h-5.527zm5.527-2h-5.527v-6h8.53c-1.415407 1.764256-2.4390872 3.8095712-3.003 6zm-26.527-36c0-1.1045695.8954305-2 2-2h36c1.1045695 0 2 .8954305 2 2v24.139c-.6743455.0860105-1.3424111.2156152-2 .388v-9.527c0-1.6568542-1.3431458-3-3-3h-30c-1.65685425 0-3 1.3431458-3 3v28c0 1.6568542 1.34314575 3 3 3h22.178c.2820935.6888064.611894 1.3570952.987 2h-26.165c-1.1045695 0-2-.8954305-2-2z"/><path id="Shape" d="m6 14h2c1.33557838.0031057 2.5116986-.8787827 2.8829609-2.161726s-.1521289-2.6566418-1.2829609-3.367274c.25917175-.4471277.39705621-.9541978.4-1.471 0-1.65685425-1.34314575-3-3-3h-1c-1.1045695 0-2 .8954305-2 2v6c0 1.1045695.8954305 2 2 2zm2-2h-2v-2h2c.55228475 0 1 .4477153 1 1s-.44771525 1-1 1zm-2-6h1c.55228475 0 1 .44771525 1 1s-.44771525 1-1 1h-1z"/><path id="Shape" d="m14 14c.5522847 0 1-.4477153 1-1v-8c0-.55228475-.4477153-1-1-1s-1 .44771525-1 1v8c0 .5522847.4477153 1 1 1z"/><path id="Shape" d="m18 14c.5522847 0 1-.4477153 1-1v-3.764l2.105 4.211c.2070599.415452.6727907.6337945 1.1245837.5272238.4517929-.1065707.7708502-.510032.7704163-.9742238v-8c0-.55228475-.4477153-1-1-1s-1 .44771525-1 1v3.764l-2.1-4.211c-.2040519-.42147024-.6732513-.64490274-1.129074-.53766446-.4558226.10723828-.7761896.51642664-.770926.98466446v8c0 .5522847.4477153 1 1 1z"/><path id="Shape" d="m36 14c1.6568542 0 3-1.3431458 3-3v-4c0-1.65685425-1.3431458-3-3-3s-3 1.34314575-3 3v4c0 1.6568542 1.3431458 3 3 3zm-1-7c0-.55228475.4477153-1 1-1s1 .44771525 1 1v4c0 .5522847-.4477153 1-1 1s-1-.4477153-1-1z"/><path id="Shape" d="m28 14c1.6568542 0 3-1.3431458 3-3v-2c0-.55228475-.4477153-1-1-1h-1c-.5522847 0-1 .44771525-1 1s.4477153 1 1 1v1c0 .5522847-.4477153 1-1 1s-1-.4477153-1-1v-4c-.0003485-.35743967.1901128-.68788589.4995777-.86675659s.6908704-.1789635 1.0004223-.00024341c.3099415.19174884.6996593.19969001 1.0171547.02072629s.5124835-.51648809.5089145-.88093096-.2051298-.69808382-.5260692-.87079533c-.9281914-.53589158-2.0717688-.53589884-2.999967-.00001905-.9281982.53587978-1.5000058 1.52623589-1.500033 2.59801905v4c0 1.6568542 1.3431458 3 3 3z"/></g></g></g></svg>